<?xml version="1.0" standalone="no"?>
<!DOCTYPE svg PUBLIC "-//W3C//DTD SVG 20010904//EN"
 "http://www.w3.org/TR/2001/REC-SVG-20010904/DTD/svg10.dtd">
<svg version="1.0" xmlns="http://www.w3.org/2000/svg"
 width="1000.000000pt" height="1000.000000pt" viewBox="0 0 1000.000000 1000.000000"
 preserveAspectRatio="xMidYMid meet">
<metadata>
Created by potrace 1.11, written by Peter Selinger 2001-2013
</metadata>
<g transform="translate(0.000000,1000.000000) scale(0.100000,-0.100000)"
fill="#000000" stroke="none">
<path d="M5981 8625 c-135 -30 -225 -68 -326 -140 -309 -219 -438 -709 -275
-1049 16 -35 75 -133 131 -217 163 -248 199 -337 199 -488 0 -161 -43 -265
-202 -493 -156 -225 -198 -324 -198 -473 0 -159 35 -242 212 -506 152 -227
179 -290 186 -436 7 -169 -27 -256 -204 -519 -158 -235 -194 -321 -194 -469 0
-156 31 -233 192 -470 173 -255 208 -336 208 -482 0 -124 -33 -192 -188 -382
-166 -206 -202 -279 -210 -436 -8 -171 36 -293 148 -406 36 -36 94 -82 130
-102 186 -103 491 -131 730 -66 508 137 820 731 847 1612 6 202 14 234 48 201
17 -17 18 -34 12 -269 -14 -530 -58 -893 -154 -1278 -47 -187 -47 -187 -27
-207 30 -30 122 -43 274 -37 161 5 214 20 218 59 2 14 -13 86 -32 160 -94 358
-137 693 -158 1236 -16 436 0 860 53 1361 l22 205 -21 17 c-64 51 -400 51
-463 0 l-21 -17 41 -244 c69 -411 91 -648 91 -978 0 -232 -11 -349 -46 -512
-88 -397 -291 -650 -584 -727 -91 -24 -274 -23 -355 1 -133 40 -237 127 -271
228 -27 79 -23 194 9 286 31 91 64 145 185 309 105 142 153 230 176 320 32
123 11 283 -53 410 -16 33 -77 131 -136 217 -165 246 -199 326 -199 476 0 151
44 253 211 498 162 237 202 342 190 505 -10 142 -41 209 -202 447 -163 241
-198 325 -199 470 0 92 25 194 70 282 13 26 72 119 130 205 166 245 210 357
202 503 -10 174 -102 264 -384 375 -82 32 -170 69 -196 82 -90 44 -148 113
-148 174 0 193 516 283 910 157 83 -26 209 -88 269 -133 75 -54 195 -186 239
-261 73 -126 127 -278 158 -449 16 -84 19 -150 19 -415 0 -387 -17 -564 -100
-1038 -20 -117 -24 -157 -15 -167 25 -30 84 -40 245 -40 140 0 165 3 200 20
40 20 40 20 39 75 -1 30 -11 147 -23 260 -36 360 -45 535 -45 950 0 659 45
1103 153 1523 23 86 41 168 41 181 0 20 -9 28 -47 43 -68 26 -359 26 -416 1
-20 -9 -40 -24 -43 -32 -3 -9 15 -98 40 -198 95 -383 139 -744 152 -1275 7
-239 6 -259 -11 -273 -28 -23 -45 11 -45 90 0 174 -45 583 -87 790 -114 569
-344 880 -705 954 -95 20 -307 20 -397 1z"/>
<path d="M2540 8545 c0 -62 19 -79 180 -160 214 -107 289 -196 298 -354 8
-136 -20 -204 -169 -417 -55 -78 -110 -167 -124 -198 -35 -78 -47 -169 -35
-253 18 -128 61 -219 202 -421 191 -274 234 -405 194 -592 -22 -100 -64 -182
-188 -366 -126 -185 -168 -261 -191 -345 -26 -90 -29 -149 -13 -239 20 -111
68 -206 196 -390 166 -236 205 -328 205 -485 0 -153 -44 -258 -194 -475 -178
-255 -214 -342 -214 -500 1 -152 33 -235 178 -464 103 -165 149 -255 175 -348
61 -218 17 -485 -105 -640 -57 -72 -132 -132 -253 -200 -123 -69 -142 -89
-142 -144 l0 -44 570 0 570 0 0 44 c0 60 -21 78 -183 159 -151 76 -218 131
-264 218 -26 50 -28 62 -28 164 0 106 1 113 36 185 20 41 73 127 119 190 148
208 172 265 172 405 -1 150 -43 257 -192 485 -151 232 -198 360 -186 510 10
135 64 254 215 469 155 219 197 324 195 489 l0 82 76 0 c173 0 359 -43 478
-112 125 -71 235 -205 274 -331 17 -57 20 -86 16 -175 -7 -138 -37 -230 -130
-395 -162 -285 -198 -384 -198 -541 0 -152 35 -250 165 -457 156 -248 205
-384 205 -566 0 -297 -105 -479 -367 -637 -62 -37 -117 -76 -123 -86 -5 -10
-10 -37 -10 -59 l0 -41 575 0 575 0 0 38 c0 21 -7 48 -16 61 -10 13 -83 55
-178 100 -180 87 -250 140 -292 223 -81 159 -43 310 141 558 127 172 164 259
165 380 0 140 -52 256 -216 486 -123 172 -174 265 -199 359 -20 80 -19 186 4
277 34 131 77 201 242 391 81 94 124 172 139 255 28 154 -40 259 -207 322
-111 41 -206 50 -552 50 -340 0 -351 1 -351 42 0 27 31 34 175 41 498 24 833
240 937 602 18 65 22 105 22 210 0 120 -2 137 -32 222 -41 119 -87 210 -212
418 -125 208 -182 320 -220 433 -85 255 -46 471 123 676 28 33 92 106 142 161
152 168 197 242 215 351 31 188 -83 330 -318 397 -76 21 -87 22 -1074 25
l-998 3 0 -46z m1404 -121 c249 -64 402 -279 422 -594 14 -199 -36 -330 -238
-631 -159 -237 -183 -296 -183 -454 0 -165 36 -256 235 -594 207 -351 245
-469 205 -624 -42 -162 -147 -256 -344 -309 -65 -18 -114 -22 -336 -25 l-260
-5 -89 124 c-188 259 -231 392 -191 583 20 94 72 200 191 385 153 240 194 367
173 536 -16 126 -46 193 -183 409 -87 137 -138 238 -168 335 -19 64 -23 96
-22 210 1 226 52 370 178 496 157 157 384 216 610 158z"/>
</g>
</svg>
