<?xml version="1.0" standalone="no"?>
<!DOCTYPE svg PUBLIC "-//W3C//DTD SVG 20010904//EN"
 "http://www.w3.org/TR/2001/REC-SVG-20010904/DTD/svg10.dtd">
<svg version="1.0" xmlns="http://www.w3.org/2000/svg"
 width="260.000000pt" height="260.000000pt" viewBox="0 0 260.000000 260.000000"
 preserveAspectRatio="xMidYMid meet">
<metadata>
Created by potrace 1.11, written by Peter Selinger 2001-2013
</metadata>
<g transform="translate(0.000000,260.000000) scale(0.100000,-0.100000)"
fill="#000000" stroke="none">
<path d="M236 1306 c0 -691 4 -1259 7 -1263 4 -3 177 -6 384 -6 l378 -1 5 453
5 452 20 -38 c10 -21 27 -49 36 -63 9 -14 30 -50 46 -80 17 -30 55 -98 85
-150 30 -52 66 -115 80 -140 81 -146 233 -407 244 -419 10 -12 85 -14 426 -14
227 0 412 3 411 7 -2 9 -538 899 -570 946 l-23 34 78 29 c42 16 87 31 99 34
12 3 28 11 34 19 6 8 16 14 21 14 18 0 103 64 155 116 144 144 206 317 200
551 -4 140 -25 228 -77 338 -97 201 -268 331 -520 398 l-115 30 -705 4 -705 4
1 -1255z m1674 1117 c200 -93 323 -238 381 -448 35 -128 32 -338 -7 -452 -65
-193 -206 -337 -403 -411 -111 -43 -148 -49 -80 -14 150 77 251 176 318 311
58 115 75 196 75 351 0 162 -18 248 -81 375 -68 139 -195 260 -345 329 -21 9
-38 18 -38 20 0 9 113 -29 180 -61z m-953 -382 c10 -1 13 -72 12 -316 l-1
-315 -21 -1 c-12 0 -39 -1 -60 -2 -27 -2 -37 2 -38 13 -1 15 0 569 1 605 0 20
15 22 107 16z m394 -11 c175 -47 255 -196 213 -397 -15 -71 -33 -104 -84 -151
-60 -55 -140 -73 -348 -75 l-122 -2 0 317 c0 202 4 318 10 320 25 8 292 -2
331 -12z m459 -1150 c52 -85 177 -292 278 -460 101 -168 188 -313 193 -323 9
-15 4 -17 -45 -17 l-55 0 -113 188 c-62 103 -117 194 -123 203 -5 9 -17 29
-27 45 -9 16 -82 137 -162 269 -150 247 -151 250 -97 258 11 2 24 6 28 10 11
11 23 -6 123 -173z m-842 -345 l-1 -455 -59 0 -58 0 -1 43 c0 55 0 792 0 835
l1 32 60 0 60 0 -2 -455z"/>
</g>
</svg>
